<svg width="28" height="28" viewBox="0 0 28 28" fill="none" xmlns="http://www.w3.org/2000/svg">
<g clip-path="url(#clip0_246_2413)">
<path d="M28 14.0851C28 21.0723 22.8737 26.8648 16.1817 27.916V18.1591H19.4355L20.055 14.1225H16.1817V11.5033C16.1817 10.3985 16.723 9.32281 18.4567 9.32281H20.2172V5.88581C20.2172 5.88581 18.6188 5.61281 17.0917 5.61281C13.902 5.61281 11.8183 7.54598 11.8183 11.0448V14.1213H8.27283V18.158H11.8183V27.9148C5.1275 26.8625 0 21.0711 0 14.0851C0 6.35365 6.2685 0.085144 14 0.085144C21.7315 0.085144 28 6.35248 28 14.0851Z" fill="white"/>
</g>
<defs>
<clipPath id="clip0_246_2413">
<rect width="28" height="28" fill="white"/>
</clipPath>
</defs>
</svg>
