<svg width="28" height="28" viewBox="0 0 28 28" fill="none" xmlns="http://www.w3.org/2000/svg">
<g clip-path="url(#clip0_246_2416)">
<path d="M16.919 13.9836C16.919 15.6531 15.5657 17.0065 13.8962 17.0065C12.2267 17.0065 10.8745 15.6531 10.8745 13.9836C10.8745 12.3141 12.2278 10.9608 13.8962 10.9608C15.5645 10.9608 16.919 12.3141 16.919 13.9836Z" fill="white"/>
<path d="M14 0C6.2685 0 0 6.2685 0 14C0 21.7315 6.2685 28 14 28C21.7315 28 28 21.7315 28 14C28 6.2685 21.7315 0 14 0ZM22.9098 17.7217C22.8667 18.6865 22.7127 19.3457 22.4887 19.922C22.2565 20.5182 21.9462 21.0245 21.4422 21.5285C20.9382 22.0325 20.4318 22.3428 19.8368 22.5738C19.2605 22.7978 18.6002 22.9507 17.6353 22.995C16.6682 23.0393 16.359 23.0498 13.8962 23.0498C11.4333 23.0498 11.1253 23.0393 10.1582 22.995C9.19333 22.9507 8.53417 22.7978 7.95667 22.5738C7.3605 22.3428 6.85533 22.0313 6.35017 21.5285C5.84617 21.0245 5.53583 20.5182 5.30367 19.922C5.07967 19.3457 4.92683 18.6865 4.8825 17.7217C4.83817 16.7545 4.82767 16.4453 4.82767 13.9825C4.82767 11.5197 4.83817 11.2117 4.8825 10.2445C4.92683 9.27967 5.07967 8.6205 5.30367 8.043C5.53583 7.44683 5.84617 6.94167 6.35017 6.43767C6.85417 5.93367 7.3605 5.62333 7.95667 5.39117C8.533 5.16717 9.19333 5.01433 10.1582 4.97C11.1253 4.92567 11.4345 4.91517 13.8962 4.91517C16.3578 4.91517 16.6682 4.92567 17.6353 4.97C18.6002 5.01317 19.2593 5.16717 19.8368 5.39117C20.433 5.62217 20.9382 5.93367 21.4422 6.43767C21.9462 6.94167 22.2565 7.448 22.4887 8.043C22.7127 8.61933 22.8655 9.27967 22.9098 10.2445C22.9542 11.2117 22.9647 11.5197 22.9647 13.9825C22.9647 16.4453 22.9542 16.7533 22.9098 17.7217ZM20.9662 8.63567C20.8017 8.21217 20.6057 7.91 20.2872 7.59267C19.9698 7.27533 19.6677 7.07817 19.2442 6.91367C18.9245 6.79 18.445 6.64183 17.5607 6.60217C16.604 6.55783 16.317 6.54967 13.8962 6.54967C11.4753 6.54967 11.1883 6.559 10.2317 6.60217C9.3485 6.64183 8.86783 6.79 8.54817 6.91367C8.12467 7.07817 7.8225 7.27417 7.50517 7.59267C7.18783 7.91 6.99067 8.21217 6.82617 8.63567C6.7025 8.95533 6.55433 9.43483 6.51467 10.3192C6.47033 11.2747 6.46217 11.5617 6.46217 13.9837C6.46217 16.4057 6.4715 16.6915 6.51467 17.6482C6.5555 18.5313 6.7025 19.012 6.82617 19.3317C6.99067 19.7552 7.18667 20.0573 7.50517 20.3747C7.8225 20.692 8.12467 20.888 8.54817 21.0525C8.86783 21.1773 9.34733 21.3243 10.2317 21.3652C11.1872 21.4095 11.4742 21.4177 13.8962 21.4177C16.3182 21.4177 16.6052 21.4083 17.5607 21.3652C18.445 21.3243 18.9245 21.1773 19.2442 21.0525C19.6677 20.888 19.9698 20.692 20.2872 20.3747C20.6045 20.0573 20.8017 19.7552 20.9662 19.3317C21.0898 19.012 21.238 18.5325 21.2777 17.6482C21.322 16.6915 21.3313 16.4045 21.3313 13.9837C21.3313 11.5628 21.322 11.2758 21.2777 10.3192C21.2368 9.43483 21.0898 8.95533 20.9662 8.63567ZM13.8973 18.6387C11.326 18.6387 9.24117 16.5538 9.24117 13.9825C9.24117 11.4112 11.326 9.32633 13.8973 9.32633C16.4687 9.32633 18.5535 11.4112 18.5535 13.9825C18.5535 16.5538 16.4687 18.6387 13.8973 18.6387ZM18.7378 10.2305C18.137 10.2305 17.6493 9.744 17.6493 9.14317C17.6493 8.54233 18.1358 8.05467 18.7378 8.05467C19.3398 8.05467 19.8263 8.54233 19.8263 9.14317C19.8263 9.744 19.3387 10.2305 18.7378 10.2305Z" fill="white"/>
</g>
<defs>
<clipPath id="clip0_246_2416">
<rect width="28" height="28" fill="white"/>
</clipPath>
</defs>
</svg>
