<svg width="21" height="21" viewBox="0 0 21 21" fill="none" xmlns="http://www.w3.org/2000/svg">
<g clip-path="url(#clip0_246_2407)">
<path d="M10.5 1.89175C13.3035 1.89175 13.636 1.90225 14.7429 1.953C15.8874 2.0055 17.066 2.26625 17.8999 3.10013C18.7416 3.94187 18.9945 5.10913 19.047 6.25712C19.0977 7.364 19.1082 7.6965 19.1082 10.5C19.1082 13.3035 19.0977 13.636 19.047 14.7429C18.9954 15.8813 18.7285 17.0713 17.8999 17.8999C17.0581 18.7416 15.8918 18.9945 14.7429 19.047C13.636 19.0977 13.3035 19.1082 10.5 19.1082C7.6965 19.1082 7.364 19.0977 6.25712 19.047C5.1275 18.9954 3.92175 18.7224 3.10013 17.8999C2.26275 17.0625 2.0055 15.8839 1.953 14.7429C1.90225 13.636 1.89175 13.3035 1.89175 10.5C1.89175 7.6965 1.90225 7.364 1.953 6.25712C2.00463 5.12313 2.27413 3.92613 3.10013 3.10013C3.94012 2.26012 5.11175 2.0055 6.25712 1.953C7.364 1.90225 7.6965 1.89175 10.5 1.89175ZM10.5 0C7.64838 0 7.2905 0.01225 6.1705 0.063C4.54738 0.137375 2.93562 0.588875 1.76225 1.76225C0.5845 2.94 0.137375 4.54825 0.063 6.1705C0.01225 7.2905 0 7.64838 0 10.5C0 13.3516 0.01225 13.7095 0.063 14.8295C0.137375 16.4509 0.590625 18.067 1.76225 19.2378C2.93913 20.4146 4.55 20.8626 6.1705 20.937C7.2905 20.9877 7.64838 21 10.5 21C13.3516 21 13.7095 20.9877 14.8295 20.937C16.4517 20.8626 18.0653 20.4102 19.2378 19.2378C20.4164 18.0591 20.8626 16.4517 20.937 14.8295C20.9877 13.7095 21 13.3516 21 10.5C21 7.64838 20.9877 7.2905 20.937 6.1705C20.8626 4.54738 20.4102 2.93475 19.2378 1.76225C18.0626 0.587125 16.4474 0.1365 14.8295 0.063C13.7095 0.01225 13.3516 0 10.5 0Z" fill="#C4A882"/>
<path d="M10.5 5.10815C7.52237 5.10815 5.10825 7.52228 5.10825 10.4999C5.10825 13.4775 7.52237 15.8917 10.5 15.8917C13.4776 15.8917 15.8917 13.4775 15.8917 10.4999C15.8917 7.52228 13.4776 5.10815 10.5 5.10815ZM10.5 13.9999C8.56712 13.9999 7 12.4328 7 10.4999C7 8.56703 8.56712 6.9999 10.5 6.9999C12.4329 6.9999 14 8.56703 14 10.4999C14 12.4328 12.4329 13.9999 10.5 13.9999Z" fill="#C4A882"/>
<path d="M16.1052 6.15477C16.8011 6.15477 17.3652 5.59064 17.3652 4.89477C17.3652 4.19889 16.8011 3.63477 16.1052 3.63477C15.4094 3.63477 14.8452 4.19889 14.8452 4.89477C14.8452 5.59064 15.4094 6.15477 16.1052 6.15477Z" fill="#C4A882"/>
</g>
<defs>
<clipPath id="clip0_246_2407">
<rect width="21" height="21" fill="white"/>
</clipPath>
</defs>
</svg>
