<svg width="35" height="75" viewBox="0 0 35 75" fill="none" xmlns="http://www.w3.org/2000/svg">
<path d="M17.7026 0C20.1428 0.695652 22.651 1.11413 25.2079 0.930435C25.6004 0.902174 26.0285 0.884058 26.4923 0.876087C28.5566 0.842391 30.7267 1.39891 32.3039 2.68804C34.7203 4.66304 35.2777 7.875 34.8856 10.8217C34.7552 11.7964 34.469 12.7087 34.0268 13.5587C32.5242 16.4435 29.2566 17.5761 26.1931 17.6272C25.326 17.6417 24.4266 17.6399 23.4947 17.6217C23.4739 17.6213 23.4533 17.6264 23.4351 17.6366C23.4169 17.6467 23.4016 17.6616 23.391 17.6796C23.3803 17.6976 23.3746 17.7181 23.3744 17.7391C23.3742 17.7601 23.3796 17.7807 23.3899 17.7989C24.1806 19.1902 23.8836 20.7446 22.6889 21.7978C22.6609 21.8224 22.63 21.8432 22.597 21.8598C21.668 22.3348 20.3113 23.3098 20.7229 24.5424C20.7481 24.6185 20.8773 24.8293 21.1107 25.175C21.8517 26.2728 21.4898 27.6435 20.4636 28.4424C20.4263 28.4713 20.3929 28.5049 20.3642 28.5424C19.8745 29.1844 19.6895 29.9569 19.809 30.8598C19.8839 31.425 20.0312 31.8931 20.2508 32.2641C20.3884 32.4967 20.4481 32.6725 20.4301 32.7913C20.4013 32.9884 20.307 33.1594 20.1471 33.3043C20.1381 33.3125 20.131 33.3227 20.1264 33.334C20.1218 33.3453 20.1198 33.3575 20.1205 33.3698C20.1212 33.382 20.1247 33.3939 20.1306 33.4046C20.1365 33.4153 20.1447 33.4245 20.1547 33.4315C20.3631 33.5848 20.4377 33.8 20.4312 34.0652C20.4161 34.7435 20.5446 35.4663 19.6264 35.5391C19.6062 35.5405 19.5872 35.5496 19.5734 35.5645C19.5595 35.5795 19.5519 35.5991 19.5519 35.6196V54.0022C19.5519 54.0103 19.5535 54.0183 19.5567 54.0257C19.5599 54.0332 19.5645 54.0399 19.5703 54.0456C19.5761 54.0513 19.5831 54.0557 19.5907 54.0587C19.5983 54.0617 19.6064 54.0632 19.6146 54.063C20.7574 54.0275 21.9784 54.0428 23.2776 54.1087C24.5976 54.175 26.0656 54.3902 27.1869 55.0533C28.7121 55.9554 29.747 57.5348 29.7805 59.3478C29.8377 62.4554 27.4969 64.1956 24.7229 64.7804C24.7154 64.7821 24.7084 64.7855 24.7024 64.7905C24.6965 64.7954 24.6918 64.8017 24.6887 64.8088C24.6856 64.8159 24.6843 64.8236 24.6848 64.8314C24.6853 64.8391 24.6876 64.8466 24.6916 64.8533L29.7805 73.4467C29.8439 73.5532 29.9361 73.6392 30.0462 73.6946C30.8585 74.1025 31.7018 74.3442 32.5761 74.4196C32.5851 74.4201 32.5937 74.4241 32.5999 74.4308C32.6061 74.4375 32.6096 74.4463 32.6096 74.4554V74.9717C32.6096 74.9792 32.6066 74.9864 32.6013 74.9917C32.5961 74.997 32.5889 75 32.5815 75H27.1156C27.0979 75 27.0805 74.9952 27.0653 74.9862C27.0501 74.9772 27.0376 74.9644 27.0292 74.9489L21.6886 65.2641C21.682 65.2522 21.6723 65.2423 21.6605 65.2354C21.6488 65.2286 21.6353 65.225 21.6216 65.225H19.6038C19.5906 65.225 19.5779 65.2304 19.5686 65.24C19.5593 65.2495 19.5541 65.2625 19.5541 65.2761C19.549 68.8601 19.5505 71.3467 19.5584 72.7359C19.5591 72.9228 19.6246 73.1707 19.755 73.4793C19.8522 73.7112 20.0171 73.9029 20.2497 74.0543C20.9065 74.4826 21.6853 74.4467 22.4188 74.4261C22.4253 74.4259 22.4317 74.4271 22.4377 74.4295C22.4438 74.4319 22.4492 74.4355 22.4539 74.44C22.4585 74.4446 22.4622 74.45 22.4647 74.456C22.4672 74.462 22.4685 74.4685 22.4685 74.475V74.9565C22.4685 74.968 22.4639 74.9791 22.4558 74.9873C22.4477 74.9954 22.4367 75 22.4253 75H13.6107C13.5958 75 13.5815 74.9939 13.571 74.9831C13.5605 74.9723 13.5545 74.9577 13.5545 74.9424L13.5556 74.4859C13.5556 74.4778 13.5572 74.4699 13.5604 74.4625C13.5637 74.4551 13.5684 74.4485 13.5743 74.4431C13.5802 74.4377 13.5871 74.4335 13.5947 74.431C13.6023 74.4284 13.6103 74.4275 13.6183 74.4283C13.6428 74.4297 13.9099 74.429 14.4198 74.4261C14.8685 74.4239 15.2717 74.3228 15.6296 74.1228C15.644 74.115 15.6561 74.1034 15.6644 74.0892C15.6728 74.075 15.6772 74.0589 15.6772 74.0424V65.2913C15.6772 65.2742 15.6706 65.2576 15.6588 65.2451C15.6469 65.2326 15.6307 65.225 15.6134 65.2239C15.2202 65.1978 14.4555 65.3 14.1109 65.1315C13.7846 64.9721 13.5949 64.6982 13.5416 64.3098C13.5405 64.3009 13.5413 64.2918 13.5439 64.2833C13.5465 64.2747 13.5509 64.2668 13.5567 64.2601C13.5625 64.2534 13.5697 64.2481 13.5777 64.2445C13.5857 64.2409 13.5944 64.239 13.6032 64.2391H15.6102C15.619 64.2391 15.6277 64.2374 15.6358 64.2341C15.644 64.2308 15.6513 64.2259 15.6576 64.2197C15.6638 64.2136 15.6687 64.2062 15.6721 64.1982C15.6754 64.1901 15.6772 64.1815 15.6772 64.1728V54.9902C15.6772 54.9713 15.672 54.9527 15.6621 54.9364C15.6522 54.9201 15.638 54.9068 15.621 54.8978C14.9945 54.5793 14.4457 54.6152 13.6129 54.6217C13.6054 54.6219 13.598 54.6205 13.5911 54.6178C13.5841 54.615 13.5778 54.6108 13.5725 54.6056C13.5671 54.6003 13.5629 54.594 13.56 54.5871C13.5571 54.5802 13.5556 54.5727 13.5556 54.5652V54.1033C13.5556 54.0888 13.5613 54.075 13.5715 54.0648C13.5816 54.0546 13.5953 54.0489 13.6096 54.0489H15.6156C15.6319 54.0489 15.6476 54.0425 15.6591 54.0311C15.6707 54.0197 15.6772 54.0042 15.6772 53.988V35.5913C15.6772 35.5786 15.6746 35.5661 15.6696 35.5545C15.6645 35.5429 15.657 35.5325 15.6477 35.5239C15.6384 35.5153 15.6273 35.5087 15.6153 35.5046C15.6032 35.5005 15.5905 35.4989 15.5778 35.5C15.2069 35.5326 14.9527 35.3746 14.8152 35.0261C14.8052 35.0017 14.8 34.9751 14.8 34.9478V33.8304C14.8 33.8038 14.8048 33.7777 14.8141 33.7533C14.8753 33.5989 14.9628 33.4703 15.0766 33.3674C15.0832 33.3615 15.0885 33.3543 15.0922 33.3462C15.0959 33.3381 15.0979 33.3294 15.098 33.3205C15.0981 33.3117 15.0963 33.303 15.0928 33.2949C15.0893 33.2869 15.0841 33.2797 15.0777 33.2739C14.732 32.9623 14.7032 32.6152 14.9912 32.2326C15.0063 32.2124 15.019 32.1905 15.029 32.1674C15.5638 30.975 15.6696 29.6283 14.8767 28.5391C14.8552 28.5095 14.8306 28.4818 14.8033 28.4565C14.4879 28.1717 14.3107 28.0029 14.2718 27.95C13.6467 27.1051 13.5556 26.2283 13.9985 25.3196C14.0252 25.2638 14.1368 25.096 14.3334 24.8163C15.15 23.6565 13.8116 22.4935 12.9226 21.9967C12.6101 21.8221 12.398 21.6743 12.2864 21.5533C11.2991 20.4848 11.1035 19.0359 11.8327 17.7793C11.8426 17.7621 11.8478 17.7425 11.8477 17.7226C11.8477 17.7026 11.8424 17.6831 11.8324 17.6659C11.8225 17.6486 11.8081 17.6344 11.7909 17.6245C11.7737 17.6147 11.7542 17.6096 11.7344 17.6098C11.5515 17.6112 11.128 17.6087 10.4641 17.6022C10.1544 17.5986 9.73239 17.6264 9.19804 17.6859C6.03085 18.0391 2.60333 17.2109 0.99165 14.1978C0.288429 12.8815 0.0313344 11.3565 0.00216853 9.7837C-0.0399599 7.48696 0.52715 4.80761 2.10535 3.03913C4.04325 0.866304 6.95335 0.509783 9.71654 0.902174C11.1187 1.10109 12.5294 1.025 13.884 0.770652C15.0399 0.553261 16.1881 0.296377 17.3288 0H17.7026ZM23.8706 3.51957C23.1771 3.66413 22.8196 3.3913 22.2038 3.2C20.9393 2.80507 19.6138 2.53623 18.2276 2.39348C17.0112 2.26848 15.7647 2.45652 14.5278 2.68696C13.7385 2.83478 13.0069 3.04928 12.3328 3.33043C11.7906 3.55652 11.3542 3.61848 10.8897 3.36522C9.01657 2.34348 6.70059 2.05435 4.78429 3.05543C3.20609 3.88043 2.05458 5.44239 1.55444 7.18804C0.985164 9.17826 1.11695 11.7957 2.30734 13.5728C4.3738 16.6598 8.23989 16.1946 11.1781 14.9467C11.2103 14.933 11.2442 14.9243 11.2785 14.9207C11.6112 14.8873 11.8255 14.8884 11.9213 14.9239C13.2528 15.4152 14.5055 15.7688 15.6793 15.9848C17.5272 16.3246 19.3676 16.1891 21.2003 15.5783C21.77 15.3877 22.3245 15.196 22.8639 15.0033C23.2841 14.8522 23.7075 14.8174 24.0791 15.0152C25.707 15.8837 27.701 16.0967 29.4434 15.6087C31.2755 15.0946 32.548 13.7478 33.1583 11.9728C33.8676 9.91196 33.7859 7.85833 32.9131 5.81196C32.0921 3.88913 30.5496 2.64348 28.4615 2.42065C26.9395 2.2587 25.3365 2.73804 23.9883 3.47609C23.9518 3.49626 23.9121 3.51092 23.8706 3.51957ZM19.6221 64.2261C20.3322 64.258 20.9983 64.2399 21.6205 64.1717C23.4202 63.9761 25.2608 63.125 25.9889 61.3913C26.3475 60.538 26.4242 59.5043 26.2352 58.625C25.9133 57.133 25.0632 56.1054 23.6848 55.5424C22.3961 55.0163 20.9 55.2217 19.6016 55.4902C19.5875 55.4932 19.5749 55.501 19.5658 55.5123C19.5568 55.5236 19.5518 55.5377 19.5519 55.5522V64.1522C19.5519 64.1712 19.5592 64.1895 19.5723 64.2033C19.5853 64.2171 19.6032 64.2252 19.6221 64.2261Z" fill="white"/>
</svg>
